<svg xmlns="http://www.w3.org/2000/svg" width="22" height="24" viewBox="0 0 22 24"><path d="M22 21H0l.002-.511c.01-2.07 1.375-3.842 3.238-4.294v-5.952C3.24 5.698 6.72 2 11 2c4.279 0 7.76 3.698 7.76 8.243v5.952c1.863.453 3.227 2.225 3.238 4.294L22 21zM1 19.982h20c-.219-1.48-1.343-2.667-2.778-2.855l-.42-.054v-6.83c0-3.984-3.052-7.225-6.802-7.225-3.75 0-6.801 3.241-6.801 7.225v6.83l-.421.054c-1.436.187-2.56 1.375-2.779 2.855z"/><path d="M9.835 3H9v-.6C9 1.078 9.897 0 11 0s2 1.077 2 2.4v.59h-.835V2.4c0-.77-.522-1.398-1.165-1.398-.642 0-1.165.628-1.165 1.399V3zm.658 21C8.807 24 7.338 22.44 7 20.291l.838-.222c.257 1.632 1.373 2.817 2.655 2.817 1.309 0 2.43-1.214 2.665-2.886l.842.201C13.69 22.403 12.215 24 10.493 24zM2 17h5v1H2zm8 0h10v1H10z"/></svg>