<svg xmlns="http://www.w3.org/2000/svg" width="22" height="22" viewBox="0 0 22 22"><g fill="#FFF" opacity=".5"><path d="M15.929 0H6.07A6.078 6.078 0 0 0 0 6.071v9.858A6.078 6.078 0 0 0 6.071 22h9.858A6.078 6.078 0 0 0 22 15.929V6.07A6.078 6.078 0 0 0 15.929 0zm4.12 15.929a4.124 4.124 0 0 1-4.12 4.12H6.07a4.124 4.124 0 0 1-4.12-4.12V6.07a4.124 4.124 0 0 1 4.12-4.12h9.858a4.124 4.124 0 0 1 4.12 4.12v9.858z"/><path d="M11.5 6A5.506 5.506 0 0 0 6 11.5c0 3.033 2.467 5.5 5.5 5.5s5.5-2.467 5.5-5.5S14.533 6 11.5 6zm0 9C9.57 15 8 13.43 8 11.5S9.57 8 11.5 8 15 9.57 15 11.5 13.43 15 11.5 15zM17 4a1.004 1.004 0 0 0-1 1 1.006 1.006 0 0 0 1 1c.264 0 .52-.107.707-.293a1.004 1.004 0 0 0 0-1.415A1.004 1.004 0 0 0 17 4z"/></g></svg>