<svg xmlns="http://www.w3.org/2000/svg" width="21" height="21" viewBox="0 0 21 21"><path fill="#FFF" d="M4.853 6.708H.668a.336.336 0 0 0-.337.336V20.49c0 .186.15.337.337.337h4.185c.186 0 .337-.15.337-.337V7.044a.336.336 0 0 0-.337-.336zM2.762.023A2.764 2.764 0 0 0 0 2.782a2.764 2.764 0 0 0 2.762 2.76 2.763 2.763 0 0 0 2.76-2.76 2.762 2.762 0 0 0-2.76-2.76zM15.5 6.373c-1.681 0-2.924.723-3.678 1.544v-.873a.336.336 0 0 0-.336-.336H7.477a.336.336 0 0 0-.336.336V20.49c0 .186.15.337.336.337h4.177c.186 0 .336-.15.336-.337v-6.653c0-2.241.61-3.115 2.172-3.115 1.702 0 1.837 1.4 1.837 3.23v6.538c0 .186.15.337.336.337h4.178c.186 0 .337-.15.337-.337v-7.375c0-3.334-.636-6.742-5.35-6.742z" opacity=".5"/></svg>