<svg aria-hidden="true" style="position: absolute; width: 0; height: 0; overflow: hidden;" version="1.1" xmlns="http://www.w3.org/2000/svg" xmlns:xlink="http://www.w3.org/1999/xlink">
<defs>
<symbol id="icon-arrow-head-down" viewBox="0 0 39 24">
<title>arrow-head-down</title>
<path stroke-width="6" stroke-miterlimit="4" stroke-linecap="round" stroke-linejoin="round" d="M33.6 3l-14.76 18-15.84-18"></path>
</symbol>
<symbol id="icon-bell" viewBox="0 0 22 24">
<title>bell</title>
<path d="M22 21h-22l0.002-0.511c0.010-2.070 1.375-3.842 3.238-4.294v-5.952c0-4.545 3.48-8.243 7.76-8.243s7.76 3.698 7.76 8.243v5.952c1.863 0.453 3.227 2.225 3.238 4.294l0.002 0.511zM1 19.982h20c-0.219-1.48-1.343-2.667-2.778-2.855l-0.42-0.054v-6.83c0-3.984-3.052-7.225-6.802-7.225s-6.801 3.241-6.801 7.225v6.83l-0.421 0.054c-1.436 0.187-2.56 1.375-2.779 2.855z"></path>
<path d="M9.835 3h-0.835v-0.6c0-1.322 0.897-2.4 2-2.4s2 1.077 2 2.4v0.59h-0.835v-0.59c0-0.77-0.522-1.398-1.165-1.398-0.642 0-1.165 0.628-1.165 1.399v0.599zM10.493 24c-1.686 0-3.155-1.56-3.493-3.709l0.838-0.222c0.257 1.632 1.373 2.817 2.655 2.817 1.309 0 2.43-1.214 2.665-2.886l0.842 0.201c-0.31 2.202-1.785 3.799-3.507 3.799zM2 17h5v1h-5zM10 17h10v1h-10z"></path>
</symbol>
<symbol id="icon-burger" viewBox="0 0 49 24">
<title>burger</title>
<path fill="#fff" style="fill: var(--color1, #fff)" d="M2.182 0h44.727c1.205 0 2.182 0.977 2.182 2.182s-0.977 2.182-2.182 2.182v0h-44.727c-1.205 0-2.182-0.977-2.182-2.182s0.977-2.182 2.182-2.182v0zM2.182 9.818h44.727c1.205 0 2.182 0.977 2.182 2.182s-0.977 2.182-2.182 2.182v0h-44.727c-1.205 0-2.182-0.977-2.182-2.182s0.977-2.182 2.182-2.182v0zM2.182 19.636h44.727c1.205 0 2.182 0.977 2.182 2.182s-0.977 2.182-2.182 2.182v0h-44.727c-1.205 0-2.182-0.977-2.182-2.182s0.977-2.182 2.182-2.182v0z"></path>
</symbol>
<symbol id="icon-facebook" viewBox="0 0 10 24">
<title>facebook</title>
<path fill="#fff" opacity="0.5" style="fill: var(--color1, #fff)" d="M2.223 4.648v3.304h-2.223v4.041h2.223v12.007h4.567v-12.007h3.065s0.287-1.937 0.426-4.056h-3.474v-2.762c0-0.413 0.498-0.968 0.991-0.968h2.488v-4.207h-3.383c-4.792 0-4.68 4.045-4.68 4.648z"></path>
</symbol>
<symbol id="icon-filter" viewBox="0 0 40 24">
<title>filter</title>
<path d="M2 0h36c1.105 0 2 0.895 2 2s-0.895 2-2 2v0h-36c-1.105 0-2-0.895-2-2s0.895-2 2-2v0zM7.333 10h25.333c1.105 0 2 0.895 2 2s-0.895 2-2 2v0h-25.333c-1.105 0-2-0.895-2-2s0.895-2 2-2v0zM15.333 20h9.333c1.105 0 2 0.895 2 2s-0.895 2-2 2v0h-9.333c-1.105 0-2-0.895-2-2s0.895-2 2-2v0z"></path>
</symbol>
<symbol id="icon-google-plus" viewBox="0 0 31 24">
<title>google-plus</title>
<path fill="#fff" opacity="0.5" style="fill: var(--color1, #fff)" d="M23.911 10.476h-11.159v3.662h6.809c-1.016 3.184-4.037 5.494-7.606 5.494-4.402 0-7.97-3.514-7.97-7.848s3.569-7.848 7.97-7.848c2.216 0 4.222 0.892 5.666 2.329l2.7-2.89c-2.157-2.081-5.097-3.364-8.336-3.364-0.011 0-0.021 0-0.032 0h0.002c-6.602 0-11.956 5.27-11.956 11.772s5.352 11.772 11.956 11.772c5.784 0 10.848-4.044 11.957-9.418v-3.662zM31.152 10.464h-2.28v-2.244h-1.956v2.244h-2.28v1.932h2.28v2.244h1.956v-2.244h2.28z"></path>
</symbol>
<symbol id="icon-instagram" viewBox="0 0 24 24">
<title>instagram</title>
<path fill="#fff" opacity="0.5" style="fill: var(--color1, #fff)" d="M17.377 0h-10.755c-3.656 0.005-6.617 2.967-6.622 6.623v10.755c0.004 3.656 2.967 6.619 6.622 6.623h10.755c3.656-0.004 6.619-2.967 6.623-6.622v-10.756c-0.005-3.656-2.967-6.617-6.623-6.622h-0zM21.872 17.377c-0.002 2.481-2.013 4.492-4.494 4.495h-10.756c-2.481-0.002-4.492-2.013-4.495-4.494v-10.756c0.002-2.481 2.013-4.492 4.494-4.495h10.754c2.481 0.002 4.492 2.013 4.495 4.494v10.754z"></path>
<path fill="#fff" opacity="0.5" style="fill: var(--color1, #fff)" d="M12.545 6.545c-3.312 0.004-5.996 2.688-6 6v0c0 3.309 2.691 6 6 6s6-2.691 6-6-2.691-6-6-6zM12.545 16.364c-2.105 0-3.818-1.713-3.818-3.818s1.713-3.818 3.818-3.818 3.818 1.713 3.818 3.818-1.713 3.818-3.818 3.818zM18.545 4.364c-0.601 0.002-1.088 0.489-1.091 1.091v0c0.004 0.601 0.49 1.087 1.091 1.091h0c0.288 0 0.567-0.117 0.771-0.32 0.197-0.198 0.318-0.471 0.318-0.772s-0.122-0.574-0.318-0.772l0 0c-0.198-0.197-0.47-0.318-0.771-0.319h-0z"></path>
</symbol>
<symbol id="icon-linkedin" viewBox="0 0 24 24">
<title>linkedin</title>
<path fill="#fff" opacity="0.5" style="fill: var(--color1, #fff)" d="M5.546 7.666h-4.783c-0 0-0.001 0-0.001 0-0.212 0-0.384 0.172-0.384 0.384 0 0 0 0 0 0v0 15.367c0 0.213 0.171 0.385 0.385 0.385h4.783c0.213 0 0.385-0.171 0.385-0.385v-15.367c0 0 0 0 0 0 0-0.212-0.172-0.384-0.384-0.384-0 0-0.001 0-0.001 0h0zM3.157 0.026c-1.742 0.001-3.153 1.412-3.157 3.153v0c0.003 1.742 1.415 3.153 3.156 3.154h0c1.741-0.002 3.152-1.413 3.154-3.154v-0c-0.001-1.742-1.413-3.153-3.154-3.154h-0zM17.714 7.283c-1.921 0-3.342 0.826-4.203 1.765v-0.998c0-0.212-0.172-0.384-0.384-0.384h-4.582c-0.212 0-0.384 0.172-0.384 0.384v0 15.367c0 0.213 0.171 0.385 0.384 0.385h4.774c0.213 0 0.384-0.171 0.384-0.385v-7.603c0-2.561 0.697-3.56 2.482-3.56 1.945 0 2.099 1.6 2.099 3.691v7.472c0 0.213 0.171 0.385 0.384 0.385h4.775c0.213 0 0.385-0.171 0.385-0.385v-8.429c0-3.81-0.727-7.705-6.114-7.705z"></path>
</symbol>
<symbol id="icon-logo" viewBox="0 0 122 24">
<title>logo</title>
<path fill="#fff" style="fill: var(--color1, #fff)" d="M26.182 5.891c-0.327-0.436-0.873-0.545-1.418-0.545h-2.291c-0.545 0-0.982 0.218-1.418 0.545l-1.527 1.527-0.436-2.073h-2.4l0.545 2.291v11.018h2.509v-8.4c0-0.218 0.109-0.327 0.218-0.436l2.4-2.291c0.109-0.109 0.327-0.218 0.436-0.218h1.745c0.109 0 0.327 0.109 0.436 0.218l0.655 0.655c0.109 0.109 0.218 0.218 0.218 0.436v1.964h2.4v-2.073c0-0.545-0.218-0.982-0.655-1.418l-1.418-1.2zM40.255 5.891c-0.327-0.436-0.873-0.545-1.418-0.545h-5.673c-0.545 0-0.982 0.218-1.418 0.545l-1.309 1.2c-0.436 0.436-0.655 0.873-0.655 1.418v6.873c0 0.545 0.218 0.982 0.655 1.418l1.309 1.2c0.436 0.436 0.873 0.545 1.418 0.545h5.782c0.545 0 0.982-0.218 1.418-0.545l1.309-1.2c0.436-0.436 0.655-0.873 0.655-1.527v-6.764c0-0.545-0.218-0.982-0.655-1.418l-1.418-1.2zM39.6 15.273c0 0.218-0.109 0.327-0.218 0.436l-0.545 0.545c-0.109 0.109-0.218 0.218-0.436 0.218h-5.018c-0.109 0-0.327-0.109-0.436-0.218l-0.545-0.545c-0.109-0.109-0.218-0.218-0.218-0.436v-6.655c0-0.218 0.109-0.327 0.218-0.436l0.545-0.545c0.109-0.109 0.218-0.218 0.436-0.218h5.018c0.109 0 0.327 0.109 0.436 0.218l0.545 0.545c0.109 0.109 0.218 0.218 0.218 0.436v6.655zM48.764 0h-2.509v5.345h-2.182v2.182h2.182v7.964c0 0.545 0.218 0.982 0.655 1.418l1.2 1.091c0.436 0.436 0.873 0.545 1.418 0.545h3.818v-2.182h-3.382c-0.109 0-0.327-0.109-0.436-0.218l-0.545-0.545c-0.109-0.109-0.218-0.327-0.218-0.436v-7.636h4.582v-2.182h-4.582v-5.345zM65.782 5.891c-0.327-0.327-0.764-0.545-1.418-0.545h-5.673c-0.545 0-0.982 0.218-1.418 0.545l-1.309 1.2c-0.436 0.436-0.655 0.873-0.655 1.418v6.873c0 0.545 0.218 0.982 0.655 1.418l1.309 1.2c0.436 0.436 0.873 0.545 1.418 0.545h5.673c0.545 0 0.982-0.218 1.418-0.545l1.309-1.2c0.436-0.436 0.655-0.873 0.655-1.527v-6.764c0-0.545-0.218-0.982-0.655-1.418l-1.309-1.2zM65.236 15.273c0 0.218-0.109 0.327-0.218 0.436l-0.545 0.545c-0.109 0.109-0.218 0.218-0.436 0.218h-5.018c-0.109 0-0.327-0.109-0.436-0.218l-0.545-0.545c-0.109-0.109-0.218-0.218-0.218-0.436v-6.655c0-0.218 0.109-0.327 0.218-0.436l0.545-0.545c0.109-0.109 0.218-0.218 0.436-0.218h5.018c0.109 0 0.327 0.109 0.436 0.218l0.545 0.545c0.109 0.109 0.218 0.218 0.218 0.436v6.655zM74.4 0h-2.509v5.345h-2.182v2.182h2.182v7.964c0 0.545 0.218 0.982 0.655 1.418l1.2 1.091c0.436 0.436 0.873 0.545 1.418 0.545h3.818v-2.182h-3.382c-0.109 0-0.327-0.109-0.436-0.218l-0.545-0.545c-0.109-0.109-0.218-0.327-0.218-0.436v-7.636h4.582v-2.182h-4.582v-5.345zM85.964 15.709l-3.6-10.364h-2.509l4.8 13.527-1.745 5.127h2.509l6.655-18.655h-2.509l-3.6 10.364zM105.164 5.891c-0.327-0.436-0.873-0.545-1.418-0.545h-3.709c-0.545 0-1.091 0.218-1.418 0.545l-1.527 1.527-0.436-2.073h-2.291l0.436 2.182v16.473h2.509v-7.309l1.418 1.418c0.327 0.327 0.873 0.545 1.418 0.545h3.709c0.545 0 0.982-0.218 1.418-0.545l1.309-1.2c0.436-0.436 0.655-0.873 0.655-1.418v-6.873c0-0.545-0.218-1.091-0.655-1.418l-1.418-1.309zM104.509 15.382c0 0.218-0.109 0.327-0.218 0.436l-0.545 0.545c-0.109 0.109-0.218 0.218-0.436 0.218h-3.382c-0.109 0-0.327-0.109-0.436-0.218l-2.291-2.182c-0.109-0.109-0.218-0.218-0.218-0.436v-3.491c0-0.218 0.109-0.327 0.218-0.436l2.291-2.182c0.109-0.109 0.218-0.218 0.436-0.218h3.382c0.109 0 0.327 0.109 0.436 0.218l0.545 0.545c0.109 0.109 0.218 0.327 0.218 0.436v6.764zM122.182 8.509c0-0.545-0.218-0.982-0.655-1.418l-1.309-1.2c-0.327-0.436-0.873-0.545-1.418-0.545h-5.673c-0.545 0-0.982 0.218-1.418 0.545l-1.309 1.2c-0.436 0.436-0.655 0.873-0.655 1.418v6.873c0 0.545 0.218 0.982 0.655 1.418l1.309 1.2c0.436 0.436 0.873 0.545 1.418 0.545h5.673c0.545 0 0.982-0.218 1.418-0.545l1.855-1.745-1.636-1.527-1.527 1.527c-0.109 0.109-0.218 0.218-0.436 0.218h-5.018c-0.109 0-0.327-0.109-0.436-0.218l-0.545-0.545c-0.109-0.109-0.109-0.218-0.109-0.436v-2.727h9.818v-4.036zM119.782 10.473h-7.418v-1.855c0-0.109 0.109-0.327 0.218-0.436l0.545-0.545c0.109-0.109 0.218-0.218 0.436-0.218h5.018c0.109 0 0.327 0.109 0.436 0.218l0.545 0.545c0.109 0.109 0.218 0.218 0.218 0.436v1.855zM11.782 0.545c-0.327-0.327-0.764-0.545-1.309-0.545h-10.473v18.655h2.618v-7.964h7.855c0.545 0 0.982-0.218 1.418-0.545l1.745-1.636c0.327-0.327 0.545-0.764 0.545-1.418v-3.491c0-0.545-0.218-0.982-0.655-1.418l-1.745-1.636zM11.564 6.764c0 0.218-0.109 0.327-0.218 0.436l-0.982 0.873c-0.109 0.109-0.218 0.218-0.327 0.218h-7.418v-5.782h7.418c0.218 0 0.327 0.109 0.436 0.218l0.982 0.873c0.109 0.109 0.218 0.218 0.218 0.436l-0.109 2.727z"></path>
</symbol>
<symbol id="icon-minus-circle" viewBox="0 0 24 24">
<title>minus-circle</title>
<path fill="none" stroke="#eb0929" stroke-width="0.336" stroke-miterlimit="4" stroke-linecap="butt" stroke-linejoin="miter" style="stroke: var(--color2, #eb0929)" d="M23.52 12c0 6.362-5.158 11.52-11.52 11.52s-11.52-5.158-11.52-11.52c0-6.362 5.158-11.52 11.52-11.52s11.52 5.158 11.52 11.52z"></path>
<path fill="#eb0929" style="fill: var(--color2, #eb0929)" d="M7.985 11.955c-0.17 0-0.305-0.099-0.305-0.219s0.135-0.216 0.305-0.216h8.025c0.17 0 0.31 0.096 0.31 0.216s-0.14 0.219-0.31 0.219h-8.025z"></path>
</symbol>
<symbol id="icon-plus" viewBox="0 0 24 24">
<title>plus</title>
<path fill="#43ba80" style="fill: var(--color3, #43ba80)" d="M0.848 12.854c-0.473 0-0.848-0.388-0.848-0.86s0.376-0.848 0.848-0.848h10.29v-10.285c0.001-0.473 0.388-0.86 0.861-0.86s0.849 0.388 0.849 0.86v10.285h10.29c0.473 0 0.86 0.376 0.86 0.848s-0.388 0.86-0.861 0.86h-10.288v10.285c0 0.002 0 0.004 0 0.006 0 0.47-0.379 0.851-0.848 0.854h-0c-0.473 0-0.861-0.388-0.861-0.86v-10.285h-10.292z"></path>
</symbol>
<symbol id="icon-plus-circle" viewBox="0 0 24 24">
<title>plus-circle</title>
<path fill="none" stroke="#43ba80" stroke-width="0.48" stroke-miterlimit="4" stroke-linecap="butt" stroke-linejoin="miter" style="stroke: var(--color3, #43ba80)" d="M23.52 12c0 6.362-5.158 11.52-11.52 11.52s-11.52-5.158-11.52-11.52c0-6.362 5.158-11.52 11.52-11.52s11.52 5.158 11.52 11.52z"></path>
<path fill="#43ba80" style="fill: var(--color3, #43ba80)" d="M7.985 12.307c-0.169-0.001-0.305-0.138-0.305-0.307 0-0.001 0-0.002 0-0.003v0c0-0.17 0.135-0.305 0.305-0.305h3.705v-3.703c0-0.17 0.138-0.308 0.308-0.308s0.308 0.138 0.308 0.308v0 3.703h3.705c0.17 0 0.308 0.138 0.308 0.308s-0.138 0.308-0.308 0.308h-3.705v3.703c0 0.17-0.138 0.308-0.308 0.308s-0.308-0.138-0.308-0.308v-3.703h-3.705z"></path>
</symbol>
<symbol id="icon-twitter" viewBox="0 0 29 24">
<title>twitter</title>
<path fill="#fff" opacity="0.5" style="fill: var(--color1, #fff)" d="M28.478 2.752c-0.977 0.444-2.109 0.768-3.297 0.913l-0.056 0.006c1.206-0.73 2.114-1.85 2.556-3.182l0.012-0.041c-1.069 0.643-2.313 1.133-3.638 1.402l-0.076 0.013c-1.066-1.134-2.576-1.84-4.251-1.84-0.004 0-0.007 0-0.011 0h0.001c-0.002 0-0.003 0-0.005 0-3.224 0-5.837 2.613-5.837 5.837 0 0.469 0.055 0.925 0.16 1.362l-0.008-0.040c-4.866-0.249-9.147-2.558-12.020-6.065l-0.023-0.029c-0.497 0.836-0.791 1.842-0.791 2.918 0 0.004 0 0.009 0 0.013v-0.001c0 2.024 1.032 3.808 2.598 4.853-0.976-0.033-1.883-0.301-2.676-0.748l0.029 0.015v0.075c0.004 2.814 1.997 5.161 4.648 5.71l0.038 0.007c-0.462 0.13-0.992 0.204-1.54 0.205h-0c-0.378 0-0.741-0.038-1.099-0.109 0.769 2.337 2.912 4.003 5.45 4.051l0.006 0c-1.972 1.554-4.491 2.492-7.231 2.492-0.009 0-0.018 0-0.026-0h0.001c-0.492-0.001-0.976-0.030-1.452-0.086l0.058 0.006c2.526 1.645 5.618 2.624 8.937 2.624 0.006 0 0.013 0 0.019 0h-0.001c10.746 0 16.621-8.885 16.621-16.59l-0.020-0.755c1.153-0.829 2.123-1.828 2.895-2.971l0.026-0.041z"></path>
</symbol>
<symbol id="icon-wreath" viewBox="0 0 25 24">
<title>wreath</title>
<path d="M16.515 8.007c0.136-0.137 0.313-0.231 0.512-0.264l0.005-0.001c-0.029 0.201-0.122 0.376-0.257 0.509l-0 0c-0.176 0.176-0.347 0.259-0.517 0.265 0-0.165 0.081-0.333 0.257-0.509zM16.213 9.342c-0.176 0.173-0.331 0.233-0.471 0.196 0.030-0.205 0.127-0.394 0.303-0.567 0.147-0.145 0.313-0.207 0.471-0.195-0.053 0.22-0.156 0.422-0.303 0.566zM15.226 9.761c0.070-0.165 0.215-0.299 0.45-0.399 0.102-0.045 0.22-0.072 0.345-0.072 0.084 0 0.166 0.012 0.243 0.035l-0.006-0.002c-0.103 0.178-0.258 0.316-0.443 0.397l-0.006 0.002c-0.235 0.099-0.426 0.108-0.583 0.039zM14.452 10.699c0.095-0.181 0.254-0.304 0.489-0.359 0.196-0.046 0.386 0.001 0.544 0.116-0.123 0.181-0.292 0.313-0.488 0.359-0.235 0.055-0.413 0.012-0.545-0.116zM13.419 11.060c0.119-0.159 0.29-0.236 0.524-0.219 0.196 0.014 0.372 0.123 0.508 0.294-0.146 0.15-0.328 0.233-0.524 0.219-0.235-0.017-0.4-0.119-0.508-0.294zM12.903 10.927c0.143-0.101 0.326-0.118 0.561-0.039 0.196 0.066 0.359 0.207 0.471 0.388-0.095 0.050-0.207 0.079-0.326 0.079-0.084 0-0.165-0.015-0.239-0.041l0.005 0.002c-0.235-0.079-0.387-0.21-0.472-0.388zM13.419 10.065c-0.031 0.202-0.125 0.378-0.26 0.512l-0 0c-0.176 0.176-0.346 0.259-0.514 0.262 0.003-0.167 0.085-0.337 0.261-0.513 0.134-0.136 0.311-0.23 0.508-0.261l0.005-0.001zM14.191 9.806c0.017 0.156-0.043 0.321-0.187 0.468-0.172 0.176-0.363 0.274-0.572 0.306-0.042-0.138 0.015-0.292 0.187-0.468 0.144-0.147 0.348-0.251 0.571-0.306zM14.929 9.29c0.025 0.075 0.039 0.162 0.039 0.252 0 0.118-0.024 0.231-0.069 0.333l0.002-0.005c-0.097 0.235-0.231 0.381-0.399 0.453-0.074-0.155-0.069-0.345 0.028-0.579 0.082-0.193 0.22-0.349 0.394-0.45l0.004-0.002zM15.079 8.774c0.121 0.156 0.174 0.345 0.132 0.541-0.050 0.235-0.169 0.394-0.351 0.492-0.133-0.13-0.182-0.307-0.132-0.541 0.041-0.196 0.17-0.366 0.351-0.491zM15.996 8.505c0.023 0.235-0.048 0.407-0.203 0.527-0.177-0.106-0.282-0.271-0.306-0.505-0.020-0.196 0.058-0.379 0.203-0.527 0.173 0.133 0.286 0.309 0.306 0.505zM15.968 5.125c0.176 0.175 0.268 0.357 0.29 0.548-0.148 0.021-0.308-0.047-0.484-0.222-0.147-0.146-0.245-0.341-0.29-0.548 0.166 0.003 0.337 0.076 0.484 0.222zM15.414 4.478c0.176 0.107 0.281 0.24 0.327 0.397-0.124 0.053-0.271 0.033-0.447-0.074-0.147-0.089-0.259-0.232-0.327-0.397 0.143-0.037 0.3-0.015 0.447 0.074zM15.007 3.903c0.235 0.073 0.389 0.202 0.477 0.381-0.139 0.109-0.321 0.134-0.556 0.061-0.196-0.061-0.361-0.199-0.476-0.381 0.099-0.059 0.219-0.094 0.347-0.094 0.075 0 0.146 0.012 0.213 0.034l-0.005-0.001zM13.935 3.34c0.142-0.157 0.323-0.248 0.519-0.243 0.235 0.007 0.402 0.102 0.513 0.273-0.116 0.165-0.285 0.249-0.519 0.243-0.196-0.006-0.374-0.108-0.513-0.273zM13.419 2.586c0.153-0.024 0.316 0.030 0.463 0.173 0.176 0.171 0.276 0.363 0.311 0.578-0.135 0.049-0.287-0.003-0.463-0.173-0.147-0.142-0.253-0.349-0.311-0.578zM15.108 2.64c0.112 0.176 0.141 0.326 0.101 0.457-0.149-0.040-0.279-0.142-0.391-0.318-0.093-0.147-0.124-0.308-0.101-0.457 0.163 0.064 0.297 0.174 0.389 0.314l0.002 0.003zM15.683 3.304c0.086 0.235 0.076 0.42-0.016 0.567-0.175-0.081-0.308-0.231-0.393-0.466-0.030-0.078-0.048-0.169-0.048-0.264 0-0.11 0.024-0.214 0.066-0.307l-0.002 0.005c0.179 0.109 0.322 0.27 0.393 0.466zM16.51 4.115c0.028 0.235-0.040 0.408-0.191 0.53-0.178-0.105-0.286-0.268-0.315-0.503-0.023-0.196 0.050-0.38 0.191-0.529 0.175 0.132 0.291 0.307 0.315 0.502zM15.742 5.935c0.21 0.041 0.393 0.14 0.535 0.28l-0-0c0.175 0.176 0.25 0.339 0.238 0.494-0.182-0.015-0.359-0.105-0.535-0.281-0.147-0.147-0.225-0.322-0.238-0.494zM15.786 7.79c-0.028-0.075-0.044-0.161-0.044-0.251 0-0.114 0.026-0.221 0.072-0.317l-0.002 0.004c0.18 0.11 0.322 0.272 0.391 0.468 0.083 0.235 0.070 0.42-0.026 0.564-0.176-0.082-0.308-0.234-0.391-0.468zM15.751 6.452c0.164 0.065 0.298 0.175 0.39 0.316l0.002 0.003c0.111 0.176 0.138 0.326 0.095 0.455-0.15-0.041-0.282-0.144-0.392-0.32-0.093-0.147-0.122-0.307-0.095-0.454zM16.876 4.387c0.125 0.155 0.182 0.342 0.144 0.538-0.046 0.235-0.163 0.395-0.345 0.494-0.137-0.128-0.189-0.304-0.144-0.539 0.038-0.196 0.165-0.367 0.345-0.493zM16.969 6.254c-0.095 0.235-0.229 0.382-0.398 0.456-0.077-0.153-0.075-0.342 0.020-0.577 0.081-0.194 0.219-0.351 0.394-0.453l0.004-0.002c0.061 0.178 0.060 0.38-0.019 0.576zM17.106 6.917c-0.171 0.176-0.363 0.275-0.574 0.309-0.046-0.137 0.009-0.29 0.18-0.466 0.143-0.147 0.348-0.252 0.574-0.308 0.021 0.154-0.037 0.319-0.18 0.466zM11.097 10.065c0.203 0.032 0.379 0.126 0.513 0.261l0 0c0.176 0.176 0.258 0.346 0.261 0.513-0.168-0.003-0.338-0.086-0.514-0.262-0.136-0.134-0.229-0.31-0.259-0.507l-0.001-0.005zM10.839 11.276c0.113-0.181 0.275-0.322 0.471-0.388 0.235-0.079 0.418-0.062 0.561 0.039-0.084 0.178-0.237 0.309-0.472 0.388-0.070 0.025-0.15 0.040-0.234 0.040-0.119 0-0.231-0.029-0.33-0.081l0.004 0.002zM9.806 11.135c0.135-0.17 0.312-0.279 0.508-0.294 0.235-0.017 0.406 0.060 0.524 0.219-0.108 0.175-0.274 0.277-0.508 0.294-0.196 0.014-0.378-0.069-0.524-0.219zM9.032 10.457c0.158-0.116 0.348-0.163 0.544-0.116 0.235 0.055 0.393 0.177 0.489 0.359-0.132 0.128-0.31 0.172-0.545 0.116-0.196-0.046-0.365-0.177-0.488-0.359zM8.258 9.324c0.071-0.021 0.153-0.033 0.237-0.033 0.125 0 0.244 0.026 0.351 0.074l-0.006-0.002c0.235 0.099 0.379 0.234 0.45 0.399-0.157 0.069-0.348 0.061-0.583-0.039-0.192-0.083-0.346-0.221-0.447-0.394l-0.002-0.005zM8 8.776c0.158-0.012 0.324 0.051 0.471 0.195 0.176 0.173 0.273 0.362 0.303 0.567-0.14 0.037-0.295-0.022-0.471-0.196-0.147-0.145-0.25-0.347-0.303-0.566zM7.484 7.742c0.204 0.033 0.381 0.128 0.517 0.265l0 0c0.176 0.176 0.257 0.345 0.257 0.509-0.17-0.006-0.341-0.089-0.517-0.265-0.135-0.133-0.228-0.308-0.256-0.504l-0.001-0.005zM8.062 6.76c0.171 0.176 0.226 0.329 0.18 0.466-0.212-0.034-0.403-0.133-0.575-0.309-0.143-0.147-0.201-0.311-0.18-0.466 0.226 0.056 0.431 0.162 0.574 0.308zM7.925 6.133c0.095 0.235 0.097 0.424 0.020 0.577-0.169-0.074-0.303-0.221-0.398-0.456-0.040-0.093-0.063-0.201-0.063-0.314 0-0.094 0.016-0.184 0.045-0.268l-0.002 0.006c0.178 0.105 0.317 0.261 0.396 0.449l0.002 0.006zM8.242 4.881c0.045 0.235-0.007 0.411-0.144 0.539-0.181-0.099-0.299-0.259-0.345-0.494-0.038-0.196 0.019-0.384 0.144-0.538 0.18 0.126 0.307 0.298 0.345 0.493zM8.321 3.613c0.141 0.149 0.214 0.333 0.191 0.529-0.028 0.235-0.136 0.398-0.315 0.503-0.151-0.122-0.219-0.295-0.191-0.53 0.023-0.196 0.14-0.37 0.315-0.502zM9.29 4.404c-0.068 0.165-0.18 0.307-0.327 0.397-0.176 0.107-0.323 0.127-0.447 0.074 0.046-0.157 0.151-0.29 0.327-0.397 0.147-0.089 0.304-0.111 0.447-0.074zM9.226 2.839c0.076 0.172 0.088 0.371 0.016 0.566-0.086 0.235-0.218 0.385-0.393 0.466-0.092-0.147-0.102-0.332-0.016-0.567 0.071-0.196 0.214-0.357 0.393-0.466zM10.065 3.965c-0.116 0.182-0.281 0.32-0.476 0.381-0.235 0.073-0.417 0.048-0.556-0.061 0.088-0.179 0.242-0.309 0.477-0.381 0.062-0.021 0.134-0.032 0.209-0.032 0.128 0 0.248 0.035 0.35 0.096l-0.003-0.002zM10.057 2.323c0.024 0.149-0.007 0.31-0.1 0.457-0.111 0.176-0.242 0.278-0.391 0.318-0.041-0.131-0.011-0.281 0.101-0.457 0.093-0.143 0.227-0.253 0.385-0.316l0.006-0.002zM10.839 2.586c-0.058 0.229-0.164 0.435-0.311 0.578-0.176 0.171-0.329 0.222-0.463 0.173 0.036-0.214 0.135-0.407 0.311-0.578 0.147-0.142 0.31-0.197 0.463-0.172zM10.326 3.612c-0.235 0.007-0.404-0.078-0.52-0.243 0.111-0.171 0.279-0.266 0.513-0.273 0.196-0.006 0.377 0.086 0.519 0.243-0.139 0.165-0.317 0.267-0.513 0.273zM8.258 5.674c0.022-0.191 0.114-0.373 0.29-0.548 0.147-0.146 0.318-0.219 0.484-0.222-0.045 0.206-0.143 0.402-0.29 0.548-0.176 0.175-0.336 0.244-0.484 0.222zM8.704 7.226c0.080 0.17 0.095 0.368 0.026 0.564-0.083 0.235-0.215 0.386-0.391 0.468-0.095-0.145-0.108-0.33-0.026-0.564 0.069-0.196 0.211-0.357 0.391-0.468zM8.239 6.216c0.142-0.14 0.325-0.239 0.528-0.279l0.007-0.001c-0.012 0.172-0.091 0.347-0.238 0.494-0.175 0.176-0.354 0.265-0.535 0.281-0.012-0.155 0.062-0.318 0.238-0.494zM8.507 6.452c0.026 0.147-0.003 0.307-0.095 0.454-0.111 0.176-0.242 0.279-0.392 0.32-0.043-0.129-0.016-0.279 0.095-0.455 0.094-0.144 0.228-0.255 0.387-0.318l0.006-0.002zM9.287 8.527c-0.023 0.235-0.129 0.399-0.306 0.505-0.154-0.121-0.226-0.293-0.203-0.527 0.020-0.196 0.133-0.371 0.306-0.505 0.145 0.147 0.222 0.331 0.203 0.527zM9.787 9.265c0.050 0.235 0.001 0.411-0.132 0.541-0.181-0.098-0.301-0.257-0.351-0.492-0.041-0.196 0.011-0.385 0.132-0.541 0.181 0.125 0.309 0.295 0.351 0.491zM10.244 9.743c0.097 0.235 0.102 0.425 0.028 0.579-0.168-0.073-0.302-0.219-0.399-0.453-0.042-0.096-0.066-0.209-0.066-0.327 0-0.090 0.014-0.177 0.040-0.258l-0.002 0.006c0.178 0.104 0.316 0.26 0.396 0.447l0.002 0.006zM10.897 10.112c0.172 0.176 0.229 0.33 0.187 0.468-0.209-0.033-0.399-0.13-0.572-0.306-0.144-0.147-0.204-0.312-0.187-0.468 0.223 0.055 0.427 0.159 0.571 0.306zM16.971 7.423c0.052-0.057 0.103-0.124 0.152-0.204 0.173-0.281 0.208-0.608 0.123-0.89-0.085 0.014-0.16 0.037-0.232 0.067l0.007-0.003c0.039-0.066 0.075-0.142 0.104-0.223l0.003-0.009c0.111-0.312 0.077-0.639-0.065-0.896-0.072 0.028-0.141 0.066-0.206 0.111 0.024-0.071 0.044-0.156 0.055-0.243l0.001-0.007c0.043-0.329-0.058-0.641-0.25-0.862-0.067 0.046-0.126 0.096-0.178 0.152l-0.001 0.001c0.009-0.077 0.010-0.162 0.003-0.255-0.026-0.33-0.19-0.614-0.424-0.79-0.054 0.056-0.102 0.119-0.143 0.187-0.008-0.077-0.024-0.161-0.050-0.25-0.094-0.317-0.313-0.56-0.579-0.681-0.041 0.066-0.075 0.138-0.101 0.213-0.030-0.090-0.064-0.168-0.105-0.241l0.004 0.007c-0.158-0.29-0.423-0.481-0.707-0.543-0.039 0.107-0.062 0.23-0.062 0.359 0 0.042 0.002 0.084 0.007 0.125l-0-0.005c-0.032-0.024-0.069-0.050-0.107-0.073l-0.006-0.003c-0.28-0.171-0.603-0.202-0.88-0.111 0.058 0.315 0.245 0.577 0.503 0.734l0.005 0.003c0.041 0.025 0.081 0.046 0.12 0.066-0.153 0.061-0.287 0.155-0.392 0.273 0.161 0.191 0.386 0.324 0.642 0.366l0.006 0.001c0.121 0.223 0.314 0.394 0.546 0.487l0.007 0.003c0.067 0.235 0.219 0.449 0.439 0.596 0.017 0.244 0.121 0.486 0.305 0.676-0.006 0.044-0.010 0.095-0.010 0.146 0 0.215 0.062 0.415 0.17 0.584l-0.003-0.004c-0.040 0.109-0.064 0.236-0.064 0.367 0 0.135 0.025 0.264 0.069 0.383l-0.002-0.007c-0.102 0.163-0.163 0.36-0.163 0.572 0 0.055 0.004 0.109 0.012 0.161l-0.001-0.006c-0.171 0.177-0.281 0.414-0.299 0.675l-0 0.003c-0.208 0.141-0.362 0.349-0.432 0.592l-0.002 0.008c-0.238 0.097-0.429 0.27-0.546 0.488l-0.003 0.006c-0.258 0.044-0.48 0.176-0.638 0.364l-0.001 0.002c-0.288-0.017-0.59 0.092-0.819 0.325-0.148 0.15-0.234 0.296-0.277 0.434-0.072 0.246-0.417 0.246-0.489 0-0.043-0.137-0.129-0.283-0.277-0.434-0.228-0.233-0.531-0.342-0.819-0.325-0.159-0.189-0.381-0.322-0.633-0.365l-0.006-0.001c-0.12-0.224-0.311-0.397-0.542-0.491l-0.007-0.003c-0.072-0.251-0.226-0.458-0.43-0.597l-0.004-0.002c-0.018-0.265-0.129-0.501-0.3-0.679l0 0c0.007-0.047 0.011-0.101 0.011-0.155 0-0.212-0.061-0.41-0.166-0.577l0.003 0.005c0.090-0.25 0.087-0.514 0.003-0.743 0.105-0.164 0.167-0.365 0.167-0.579 0-0.052-0.004-0.103-0.011-0.152l0.001 0.006c0.172-0.176 0.285-0.411 0.305-0.672l0-0.004c0.209-0.14 0.365-0.346 0.437-0.589l0.002-0.008c0.239-0.095 0.432-0.266 0.55-0.483l0.003-0.006c0.262-0.042 0.487-0.175 0.647-0.365l0.001-0.002c-0.106-0.118-0.237-0.211-0.385-0.27l-0.007-0.002c0.049-0.024 0.088-0.046 0.126-0.069l-0.006 0.004c0.263-0.16 0.45-0.423 0.507-0.73l0.001-0.007c-0.277-0.091-0.6-0.060-0.881 0.111-0.044 0.027-0.081 0.053-0.117 0.080l0.004-0.003c0.004-0.036 0.007-0.077 0.007-0.12 0-0.129-0.023-0.252-0.065-0.367l0.002 0.007c-0.285 0.062-0.549 0.252-0.707 0.543-0.045 0.082-0.078 0.16-0.101 0.234-0.026-0.075-0.060-0.147-0.101-0.214-0.265 0.121-0.484 0.364-0.579 0.681-0.027 0.090-0.043 0.173-0.050 0.251-0.043-0.071-0.090-0.132-0.143-0.187l0 0c-0.234 0.175-0.398 0.459-0.424 0.789-0.007 0.094-0.006 0.178 0.003 0.255-0.053-0.057-0.112-0.107-0.175-0.15l-0.004-0.002c-0.193 0.221-0.293 0.533-0.25 0.862 0.012 0.093 0.032 0.175 0.056 0.249-0.060-0.042-0.128-0.079-0.2-0.109l-0.007-0.002c-0.142 0.258-0.176 0.584-0.065 0.896 0.031 0.089 0.067 0.165 0.107 0.232-0.065-0.028-0.14-0.050-0.219-0.064l-0.006-0.001c-0.085 0.282-0.050 0.609 0.123 0.89 0.049 0.080 0.1 0.147 0.152 0.204-0.055-0.011-0.117-0.017-0.182-0.017-0.018 0-0.036 0-0.054 0.001l0.002-0c-0.002 0.025-0.003 0.054-0.003 0.083 0 0.296 0.118 0.564 0.308 0.761l-0-0c0.065 0.068 0.128 0.122 0.191 0.167-0.083 0.003-0.163 0.016-0.238 0.037l0.007-0.002c0.044 0.318 0.22 0.589 0.47 0.758l0.004 0.002c0.077 0.052 0.151 0.092 0.222 0.122-0.083 0.022-0.156 0.050-0.224 0.086l0.006-0.003c0.107 0.295 0.331 0.525 0.614 0.639l0.007 0.003c0.086 0.035 0.167 0.058 0.242 0.072-0.075 0.038-0.139 0.081-0.198 0.13l0.002-0.001c0.162 0.26 0.426 0.443 0.734 0.494l0.006 0.001c0.091 0.015 0.175 0.021 0.252 0.019-0.062 0.050-0.116 0.105-0.164 0.165l-0.002 0.002c0.194 0.202 0.466 0.327 0.768 0.327 0.021 0 0.041-0.001 0.062-0.002l-0.003 0c0.093-0.004 0.175-0.017 0.25-0.035-0.047 0.058-0.089 0.123-0.124 0.193l-0.003 0.006c0.241 0.165 0.56 0.227 0.876 0.142 0.152-0.041 0.274-0.098 0.369-0.164 0.144-0.101 0.322-0.161 0.515-0.161s0.371 0.060 0.518 0.163l-0.003-0.002c0.095 0.067 0.216 0.123 0.369 0.164 0.316 0.085 0.635 0.023 0.876-0.142-0.037-0.076-0.079-0.141-0.128-0.201l0.001 0.002c0.074 0.018 0.157 0.031 0.25 0.035 0.018 0.001 0.038 0.002 0.059 0.002 0.302 0 0.574-0.125 0.767-0.327l0-0c-0.049-0.063-0.103-0.118-0.163-0.166l-0.002-0.002c0.077 0.002 0.16-0.003 0.252-0.019 0.315-0.052 0.579-0.235 0.738-0.49l0.003-0.005c-0.057-0.048-0.122-0.091-0.191-0.126l-0.006-0.003c0.075-0.014 0.156-0.038 0.242-0.072 0.29-0.116 0.514-0.347 0.619-0.634l0.002-0.008c-0.063-0.033-0.135-0.062-0.212-0.082l-0.007-0.002c0.071-0.030 0.145-0.070 0.222-0.122 0.254-0.171 0.43-0.442 0.473-0.754l0.001-0.006c-0.069-0.020-0.148-0.032-0.229-0.035l-0.002-0c0.063-0.045 0.127-0.099 0.191-0.167 0.191-0.197 0.308-0.465 0.308-0.761 0-0.029-0.001-0.058-0.003-0.087l0 0.004c-0.077-0.004-0.156 0.001-0.233 0.015z"></path>
</symbol>
</defs>
</svg>
