<svg xmlns="http://www.w3.org/2000/svg" width="23" height="19" viewBox="0 0 23 19"><path fill="#FFF" d="M22.545 2.179a9.25 9.25 0 0 1-2.655.727A4.637 4.637 0 0 0 21.923.354a9.334 9.334 0 0 1-2.94 1.12A4.616 4.616 0 0 0 15.609.017a4.621 4.621 0 0 0-4.505 5.668A13.138 13.138 0 0 1 1.57.86a4.575 4.575 0 0 0-.626 2.32c0 1.602.817 3.015 2.057 3.842a4.632 4.632 0 0 1-2.095-.58v.059a4.623 4.623 0 0 0 3.71 4.526 4.693 4.693 0 0 1-1.219.162c-.299 0-.587-.03-.87-.086a4.626 4.626 0 0 0 4.319 3.207 9.29 9.29 0 0 1-5.744 1.973 9.81 9.81 0 0 1-1.103-.064 13.09 13.09 0 0 0 7.09 2.077c8.507 0 13.158-7.034 13.158-13.134l-.016-.598a9.227 9.227 0 0 0 2.313-2.385z" opacity=".5"/></svg>