<svg xmlns="http://www.w3.org/2000/svg" width="95" height="93" viewBox="0 0 95 93"><defs><filter id="a" width="119.9%" height="126.8%" x="-9.9%" y="-8.5%" filterUnits="objectBoundingBox"><feOffset dy="20" in="SourceAlpha" result="shadowOffsetOuter1"/><feGaussianBlur in="shadowOffsetOuter1" result="shadowBlurOuter1" stdDeviation="15"/><feColorMatrix in="shadowBlurOuter1" result="shadowMatrixOuter1" values="0 0 0 0 0 0 0 0 0 0 0 0 0 0 0 0 0 0 0.1 0"/><feMerge><feMergeNode in="shadowMatrixOuter1"/><feMergeNode in="SourceGraphic"/></feMerge></filter></defs><path fill-rule="evenodd" d="M75.996 63.026A3.632 3.632 0 0 1 78 62a3.439 3.439 0 0 1-.995 1.973c-.682.681-1.346 1.005-2.005 1.027.001-.639.315-1.292.996-1.974zM74.827 68.2c-.682.671-1.284.902-1.827.758.117-.794.493-1.526 1.174-2.197.57-.56 1.214-.804 1.826-.756-.204.851-.604 1.635-1.173 2.195zM71 69.825c.272-.641.834-1.16 1.743-1.546a3.36 3.36 0 0 1 2.257-.15 3.655 3.655 0 0 1-1.741 1.546c-.91.385-1.65.419-2.259.15zm-3 3.633c.37-.703.984-1.177 1.893-1.39.758-.179 1.495.003 2.107.451-.477.703-1.132 1.212-1.89 1.39-.91.214-1.6.046-2.11-.45zm-4 1.398c.46-.615 1.123-.913 2.032-.847.759.055 1.443.478 1.968 1.138-.564.58-1.271.902-2.03.847-.91-.066-1.55-.46-1.97-1.138zm-2-.512c.553-.39 1.265-.459 2.174-.152.759.256 1.39.802 1.826 1.503a2.765 2.765 0 0 1-2.172.152c-.91-.307-1.5-.815-1.828-1.503zM64 71a3.52 3.52 0 0 1-1.008 1.985C62.31 73.667 61.65 73.987 61 74c.01-.647.328-1.305 1.01-1.987A3.55 3.55 0 0 1 64 71zm2.99-1c.065.604-.167 1.244-.724 1.813-.668.682-1.406 1.061-2.215 1.187-.162-.535.057-1.133.725-1.814.557-.57 1.348-.974 2.213-1.186zm2.86-2a3.246 3.246 0 0 1-.108 2.243c-.376.91-.895 1.476-1.546 1.757-.286-.6-.267-1.336.109-2.245A3.648 3.648 0 0 1 69.849 68zm.583-2c.47.604.673 1.336.513 2.095-.193.91-.656 1.527-1.36 1.905-.517-.503-.705-1.188-.512-2.097.16-.759.659-1.419 1.359-1.903zm3.55-1.044c.091.909-.187 1.576-.786 2.044-.686-.412-1.094-1.049-1.185-1.958-.076-.759.224-1.47.785-2.042.67.517 1.11 1.197 1.186 1.956zm-.108-13.096c.682.679 1.04 1.385 1.125 2.125-.575.083-1.195-.183-1.877-.861-.569-.567-.95-1.323-1.123-2.124.643.012 1.306.294 1.875.86zm-2.144-2.507c.682.414 1.09.93 1.269 1.537-.481.207-1.051.127-1.733-.287-.569-.346-1.004-.898-1.267-1.537.553-.142 1.162-.06 1.731.287zm-1.578-2.228c.909.282 1.507.783 1.847 1.478-.54.422-1.245.518-2.155.237-.758-.236-1.397-.773-1.845-1.477a2.67 2.67 0 0 1 2.153-.238zM66 44.941c.552-.608 1.253-.962 2.012-.94.909.027 1.556.394 1.988 1.058-.448.638-1.104.966-2.013.94-.76-.023-1.45-.418-1.987-1.058zm-2-2.92c.592-.094 1.225.118 1.794.67.682.661 1.068 1.408 1.206 2.24-.522.191-1.114-.01-1.796-.67-.569-.552-.98-1.353-1.204-2.24zm6.543.209c.433.682.547 1.264.39 1.77-.576-.155-1.082-.55-1.514-1.231-.361-.57-.481-1.192-.39-1.769a3.15 3.15 0 0 1 1.514 1.23zm2.228 2.574c.333.909.295 1.628-.061 2.196-.678-.313-1.192-.896-1.524-1.805A2.895 2.895 0 0 1 71.248 43c.694.422 1.246 1.045 1.523 1.804zm3.205 3.143c.109.91-.154 1.58-.74 2.053-.691-.406-1.11-1.04-1.22-1.95-.09-.758.194-1.473.741-2.05.677.512 1.128 1.189 1.219 1.947zM73 55a4.02 4.02 0 0 1 2.073 1.086c.68.681.968 1.314.922 1.914-.705-.06-1.393-.405-2.074-1.087-.568-.569-.873-1.246-.921-1.913zm.172 7.185a2.838 2.838 0 0 1 .1-2.185c.697.428 1.246 1.054 1.515 1.813.322.909.271 1.626-.1 2.187-.681-.319-1.193-.906-1.515-1.815zM73.036 57a3.17 3.17 0 0 1 1.52 1.238c.429.682.536 1.262.369 1.762-.583-.16-1.092-.558-1.52-1.24-.359-.569-.471-1.189-.369-1.76zm4.36-8c.486.599.706 1.327.559 2.086-.177.91-.633 1.53-1.335 1.914-.531-.497-.734-1.179-.558-2.088.147-.759.638-1.422 1.335-1.912zm.36 7.233c-.367.91-.887 1.48-1.543 1.767-.3-.593-.291-1.326.077-2.235A3.64 3.64 0 0 1 77.832 54c.238.69.232 1.474-.075 2.233zm.53 2.57c-.664.683-1.407 1.065-2.226 1.197-.177-.529.034-1.123.698-1.805.555-.57 1.35-.977 2.226-1.195.08.598-.142 1.235-.697 1.804zM55 71a3.55 3.55 0 0 1 1.99 1.013c.682.682 1 1.34 1.01 1.987-.65-.013-1.31-.333-1.992-1.015A3.521 3.521 0 0 1 55 71zm-1 4.695c.436-.701 1.067-1.247 1.826-1.503.909-.307 1.621-.239 2.174.152-.327.688-.919 1.196-1.828 1.503A2.77 2.77 0 0 1 54 75.695zm-4-.548c.525-.66 1.21-1.083 1.968-1.138.91-.066 1.572.232 2.032.847-.42.679-1.06 1.072-1.97 1.138-.759.055-1.466-.267-2.03-.847zm-3-2.628c.612-.448 1.349-.63 2.107-.451.91.213 1.523.687 1.893 1.39-.51.497-1.2.665-2.11.451-.758-.178-1.413-.687-1.89-1.39zm-3-4.39a3.36 3.36 0 0 1 2.257.15c.909.385 1.47.905 1.743 1.546-.608.269-1.35.235-2.259-.15A3.656 3.656 0 0 1 44 68.129zm-1-2.123c.612-.048 1.257.196 1.826.756.681.671 1.057 1.403 1.174 2.197-.543.144-1.145-.087-1.827-.758-.57-.56-.969-1.344-1.173-2.195zM41 62a3.632 3.632 0 0 1 2.004 1.026c.681.682.995 1.335.996 1.974-.659-.022-1.323-.346-2.005-1.027A3.438 3.438 0 0 1 41 62zm2.242-3.805c.664.682.875 1.276.698 1.805-.82-.132-1.562-.514-2.227-1.196-.555-.57-.777-1.206-.697-1.804.875.218 1.67.626 2.226 1.195zm-.532-2.43c.368.91.377 1.642.077 2.235-.656-.288-1.176-.858-1.544-1.767A3.168 3.168 0 0 1 41.168 54a3.64 3.64 0 0 1 1.542 1.765zm1.228-4.853c.176.91-.027 1.591-.558 2.088-.702-.383-1.158-1.005-1.335-1.914-.147-.759.073-1.487.558-2.086.697.49 1.188 1.153 1.335 1.912zM44.243 46c.547.577.831 1.292.74 2.05-.109.91-.528 1.544-1.219 1.95-.586-.474-.849-1.144-.74-2.053.09-.758.542-1.435 1.219-1.947zM48 49.066c-.263.639-.698 1.19-1.267 1.537-.682.414-1.252.494-1.733.287.179-.608.587-1.123 1.269-1.537.569-.346 1.178-.429 1.731-.287zM47.752 43c.296.666.34 1.436.062 2.195-.332.909-.846 1.492-1.524 1.805-.356-.568-.394-1.287-.061-2.196.277-.76.829-1.382 1.523-1.804zM51 47.363c-.448.704-1.087 1.241-1.846 1.477-.909.281-1.614.185-2.154-.237.34-.695.938-1.196 1.847-1.478a2.67 2.67 0 0 1 2.153.238zM50.97 41c.092.577-.028 1.2-.389 1.769-.432.681-.938 1.076-1.514 1.231-.157-.506-.043-1.088.39-1.77A3.15 3.15 0 0 1 50.97 41zM54 42.022c-.224.886-.635 1.687-1.204 2.238-.682.662-1.274.862-1.796.67.138-.83.524-1.578 1.206-2.24.569-.551 1.202-.763 1.794-.668zm-1.986 3.976c-.91.027-1.566-.301-2.014-.94.432-.663 1.08-1.03 1.989-1.057.758-.022 1.459.332 2.011.94-.537.64-1.228 1.035-1.986 1.057zM44 53.985c.085-.74.443-1.446 1.125-2.125.569-.566 1.232-.848 1.875-.86-.173.8-.554 1.557-1.123 2.124-.682.678-1.302.944-1.877.861zM45.729 60c.311.66.368 1.426.1 2.185-.323.91-.835 1.496-1.517 1.815-.37-.561-.42-1.278-.099-2.187.269-.759.818-1.385 1.516-1.813zm-1.802-3.914A4.02 4.02 0 0 1 46 55c-.048.667-.353 1.344-.921 1.913-.68.682-1.37 1.027-2.074 1.087-.046-.6.241-1.233.922-1.914zm1.037.914c.102.571-.01 1.191-.368 1.76-.43.682-.938 1.08-1.52 1.24-.168-.5-.061-1.08.368-1.762A3.17 3.17 0 0 1 44.964 57zm3.024 8.042c-.09.91-.499 1.546-1.186 1.958-.598-.468-.876-1.135-.785-2.044.076-.759.515-1.439 1.186-1.956.561.571.861 1.283.785 2.042zm1.938 2.861c.193.91.005 1.594-.512 2.097-.703-.378-1.167-.996-1.36-1.905-.16-.759.043-1.49.513-2.095.7.484 1.199 1.144 1.36 1.903zm1.77 1.852c.375.91.394 1.646.108 2.245-.65-.281-1.17-.848-1.546-1.757A3.246 3.246 0 0 1 50.151 68a3.648 3.648 0 0 1 1.544 1.755zm2.528 1.43c.668.682.887 1.28.725 1.815-.81-.126-1.547-.505-2.215-1.187-.557-.57-.789-1.209-.723-1.813.865.212 1.656.617 2.213 1.186zm23.537-10.422c.202-.22.4-.48.59-.79.671-1.09.807-2.356.476-3.448a3.91 3.91 0 0 0-.872.25 5.27 5.27 0 0 0 .413-.899c.429-1.209.298-2.475-.253-3.473-.28.11-.548.255-.8.43a5.23 5.23 0 0 0 .216-.966c.168-1.273-.223-2.483-.97-3.34a3.99 3.99 0 0 0-.692.59c.033-.3.04-.627.011-.99-.1-1.28-.735-2.38-1.643-3.06-.21.218-.396.462-.554.726-.03-.3-.092-.622-.195-.97-.365-1.23-1.214-2.17-2.242-2.64-.16.256-.291.535-.392.827a5.236 5.236 0 0 0-.392-.907c-.613-1.125-1.638-1.863-2.741-2.103a4.135 4.135 0 0 0-.215 1.855 5.431 5.431 0 0 0-.44-.298c-1.085-.664-2.337-.783-3.411-.432a4.205 4.205 0 0 0 1.967 2.856c.159.097.314.18.465.254-.592.236-1.113.6-1.52 1.057a4.1 4.1 0 0 0 2.511 1.42 4.133 4.133 0 0 0 2.143 1.896c.259.91.85 1.741 1.7 2.309.065.944.47 1.884 1.183 2.62a4.211 4.211 0 0 0 .611 2.814 4.216 4.216 0 0 0 .012 2.88 4.21 4.21 0 0 0-.588 2.82 4.192 4.192 0 0 0-1.16 2.63 4.163 4.163 0 0 0-1.682 2.323 4.133 4.133 0 0 0-2.127 1.913 4.103 4.103 0 0 0-2.478 1.416c-1.115-.066-2.287.357-3.172 1.258-.573.583-.907 1.148-1.073 1.68-.279.952-1.615.953-1.894 0-.166-.532-.5-1.097-1.073-1.68-.885-.901-2.057-1.324-3.172-1.258a4.103 4.103 0 0 0-2.478-1.416 4.133 4.133 0 0 0-2.127-1.913 4.163 4.163 0 0 0-1.682-2.323 4.192 4.192 0 0 0-1.16-2.63 4.211 4.211 0 0 0-.588-2.82c.35-.968.338-1.993.012-2.88a4.211 4.211 0 0 0 .61-2.814 4.191 4.191 0 0 0 1.183-2.62 4.164 4.164 0 0 0 1.7-2.31 4.131 4.131 0 0 0 2.144-1.894 4.1 4.1 0 0 0 2.511-1.421 4.036 4.036 0 0 0-1.52-1.057 5.6 5.6 0 0 0 .465-.254 4.205 4.205 0 0 0 1.967-2.856c-1.074-.351-2.326-.232-3.412.432a5.624 5.624 0 0 0-.439.298A4.137 4.137 0 0 0 51.279 40c-1.103.24-2.128.978-2.74 2.103-.174.319-.302.62-.393.907-.1-.292-.231-.57-.392-.828-1.028.47-1.877 1.41-2.242 2.64-.103.35-.165.671-.195.971a3.995 3.995 0 0 0-.554-.725c-.908.679-1.542 1.778-1.643 3.059-.028.363-.022.69.011.99a3.969 3.969 0 0 0-.693-.59c-.746.857-1.137 2.067-.97 3.34.048.361.123.68.217.966a3.933 3.933 0 0 0-.8-.43c-.55.998-.682 2.264-.253 3.473.122.343.261.64.413.898a3.91 3.91 0 0 0-.872-.25c-.33 1.093-.195 2.36.475 3.45.19.309.389.568.59.79a3.903 3.903 0 0 0-.903-.059 4.237 4.237 0 0 0 1.182 3.27c.25.262.497.474.741.647a3.9 3.9 0 0 0-.896.136 4.212 4.212 0 0 0 1.835 2.945c.3.202.585.356.86.473a3.93 3.93 0 0 0-.848.324 4.182 4.182 0 0 0 2.407 2.487c.334.134.646.224.938.28a3.95 3.95 0 0 0-.76.498 4.15 4.15 0 0 0 2.87 1.918c.354.06.677.08.975.073a3.97 3.97 0 0 0-.64.649 4.124 4.124 0 0 0 3.204 1.262c.36-.017.68-.065.969-.136a4.01 4.01 0 0 0-.491.77c.934.641 2.17.881 3.395.551.59-.159 1.06-.378 1.429-.637a3.504 3.504 0 0 1 3.99 0c.37.259.838.478 1.429.637 1.226.33 2.46.09 3.395-.55a4.003 4.003 0 0 0-.49-.771c.288.07.609.119.968.136a4.124 4.124 0 0 0 3.204-1.262 3.97 3.97 0 0 0-.64-.65c.298.008.62-.013.976-.072a4.15 4.15 0 0 0 2.87-1.918 3.945 3.945 0 0 0-.761-.498c.292-.056.604-.146.938-.28a4.182 4.182 0 0 0 2.407-2.487 3.93 3.93 0 0 0-.848-.324c.274-.117.56-.271.86-.473a4.212 4.212 0 0 0 1.835-2.945 3.9 3.9 0 0 0-.896-.136c.244-.173.491-.385.741-.647a4.237 4.237 0 0 0 1.182-3.27c-.3-.016-.603.004-.904.058z" filter="url(#a)" transform="translate(-12 -32)"/></svg>